<svg width="255" height="226" viewBox="0 0 255 226" fill="none" xmlns="http://www.w3.org/2000/svg">
<ellipse rx="109.41" ry="25.7435" transform="matrix(1.19249e-08 -1 -1 -1.19249e-08 98.7741 109.514)" fill="#0094FF"/>
<path d="M129.667 1.03271C126.413 1.03271 123.154 3.85265 120.083 9.37376C117.035 14.8522 114.275 22.8128 111.95 32.6927C107.302 52.4445 104.423 79.7567 104.423 109.943C104.423 140.129 107.302 167.441 111.95 187.193C114.275 197.072 117.035 205.033 120.083 210.511C123.154 216.033 126.413 218.853 129.667 218.853C132.92 218.853 136.179 216.033 139.25 210.511C142.298 205.033 145.059 197.072 147.383 187.193C152.031 167.441 154.91 140.129 154.91 109.943C154.91 79.7567 152.031 52.4445 147.383 32.6927C145.059 22.8128 142.298 14.8522 139.25 9.37376C136.179 3.85265 132.92 1.03271 129.667 1.03271Z" stroke="#39353E"/>
<path d="M255 31.0674L229.466 90.1832L191.042 38.5533L255 31.0674Z" fill="#0094FF"/>
<line x1="236.104" y1="45.6421" x2="47.2989" y2="186.401" stroke="#39353E"/>
<line x1="153.713" y1="71.7357" x2="46.7174" y2="147.25" stroke="#39353E"/>
<path d="M153.681 145.61L46.4998 225.5" stroke="#39353E"/>
<line x1="47" y1="225.5" y2="225.5" stroke="#39353E"/>
<line x1="47" y1="147.5" y2="147.5" stroke="#39353E"/>
<line x1="48" y1="186.5" y2="186.5" stroke="#39353E"/>
<line x1="0.5" y1="-2.18557e-08" x2="0.50001" y2="225" stroke="#39353E"/>
</svg>
