<svg width="221" height="227" viewBox="0 0 221 227" fill="none" xmlns="http://www.w3.org/2000/svg">
<circle r="28.276" transform="matrix(-1 0 0 1 58.5262 79.401)" stroke="#39353E"/>
<circle r="28.776" transform="matrix(-1 0 0 1 162.474 79.401)" fill="#0094FF"/>
<line x1="181.871" y1="58.0549" x2="161.507" y2="79.3049" stroke="#39353E"/>
<line y1="-0.5" x2="29.4326" y2="-0.5" transform="matrix(-0.691905 -0.721988 -0.721988 0.691905 181.51 101.094)" stroke="#39353E"/>
<path d="M110.589 157.408L138.658 129.344L110.589 101.27L82.5198 129.344L110.589 157.408Z" stroke="#39353E"/>
<path d="M213.031 112.25L205.063 126.063L221 126.062L213.031 112.25Z" fill="#39353E"/>
<path d="M7.96875 112.25L1.20753e-06 126.063L15.9375 126.062L7.96875 112.25Z" fill="#39353E"/>
<path d="M212.832 117.612C213.771 131.557 211.835 145.547 207.144 158.713C202.453 171.879 195.107 183.941 185.562 194.151C176.017 204.36 164.475 212.5 151.654 218.065C138.833 223.629 125.005 226.5 111.028 226.5C97.0509 226.5 83.2232 223.627 70.4022 218.062C57.5813 212.496 46.0405 204.356 36.4958 194.145C26.9511 183.935 19.6059 171.873 14.9158 158.706C10.2258 145.54 8.29088 131.55 9.23114 117.605" stroke="#39353E"/>
<path d="M150.648 9.19256C125.71 -1.31434 97.6205 -1.4846 72.5577 8.71923" stroke="#39353E"/>
</svg>
