<svg width="255" height="226" viewBox="0 0 255 226" fill="none" xmlns="http://www.w3.org/2000/svg">
<path d="M0.5 196C0.5 199.841 3.82613 203.66 10.2626 207.24C16.6565 210.797 25.9417 214.017 37.4584 216.726C60.4839 222.144 92.3187 225.5 127.5 225.5C162.681 225.5 194.516 222.144 217.542 216.726C229.058 214.017 238.344 210.797 244.737 207.24C251.174 203.66 254.5 199.841 254.5 196C254.5 192.159 251.174 188.34 244.737 184.76C238.344 181.203 229.058 177.983 217.542 175.274C194.516 169.856 162.681 166.5 127.5 166.5C92.3187 166.5 60.4839 169.856 37.4584 175.274C25.9417 177.983 16.6565 181.203 10.2626 184.76C3.82613 188.34 0.5 192.159 0.5 196Z" stroke="#39353E"/>
<path d="M0.5 166C0.5 169.841 3.82613 173.66 10.2626 177.24C16.6565 180.797 25.9417 184.017 37.4584 186.726C60.4839 192.144 92.3187 195.5 127.5 195.5C162.681 195.5 194.516 192.144 217.542 186.726C229.058 184.017 238.344 180.797 244.737 177.24C251.174 173.66 254.5 169.841 254.5 166C254.5 162.159 251.174 158.34 244.737 154.76C238.344 151.203 229.058 147.983 217.542 145.274C194.516 139.856 162.681 136.5 127.5 136.5C92.3187 136.5 60.4839 139.856 37.4584 145.274C25.9417 147.983 16.6565 151.203 10.2626 154.76C3.82613 158.34 0.5 162.159 0.5 166Z" stroke="#39353E"/>
<ellipse rx="66.5" ry="16" transform="matrix(-1 0 0 1 127.5 170)" fill="#0094FF"/>
<path d="M127.5 0L148 35H107L127.5 0Z" fill="#0094FF"/>
<path d="M150.879 111.5L162.5 91.9775L174.121 111.5H150.879Z" stroke="#39353E"/>
<path d="M80.8795 72.5L92.5 52.9775L104.121 72.5H80.8795Z" stroke="#39353E"/>
<line x1="127.5" y1="26" x2="127.5" y2="171" stroke="#39353E"/>
<line x1="92.5" y1="64" x2="92.5" y2="171" stroke="#39353E"/>
<line x1="162.5" y1="103" x2="162.5" y2="171" stroke="#39353E"/>
</svg>
