<svg width="34" height="34" viewBox="0 0 34 34" fill="none" xmlns="http://www.w3.org/2000/svg">
<path fill-rule="evenodd" clip-rule="evenodd" d="M16.8507 0C7.54429 0 0 7.54429 0 16.8507C0 26.157 7.54429 33.7013 16.8507 33.7013C26.157 33.7013 33.7013 26.157 33.7013 16.8507C33.7013 7.54429 26.157 0 16.8507 0ZM17.8424 20.8455C17.7223 20.9722 17.4878 20.9978 17.4878 20.9978H16.7112C16.7112 20.9978 14.9979 21.0988 13.4886 19.5568C11.8427 17.8744 10.3893 14.5364 10.3893 14.5364C10.3893 14.5364 10.3054 14.3174 10.3963 14.212C10.4986 14.0929 10.7776 14.0854 10.7776 14.0854L12.6339 14.0735C12.6339 14.0735 12.8086 14.1016 12.9338 14.192C13.0374 14.2669 13.0953 14.406 13.0953 14.406C13.0953 14.406 13.3952 15.1508 13.7924 15.8245C14.5683 17.1401 14.9293 17.4277 15.1924 17.2867C15.5762 17.0815 15.4612 15.4272 15.4612 15.4272C15.4612 15.4272 15.4682 14.8271 15.268 14.5595C15.113 14.3524 14.8206 14.2919 14.6916 14.275C14.5868 14.2613 14.7584 14.023 14.9808 13.9163C15.3151 13.756 15.9048 13.7467 16.6019 13.7535C17.1453 13.7591 17.3016 13.7922 17.5139 13.8427C18.0065 13.9594 17.9911 14.3334 17.9579 15.1404C17.948 15.3818 17.9365 15.6619 17.9365 15.9855C17.9365 16.0582 17.9343 16.1357 17.9321 16.2154C17.9206 16.6289 17.9074 17.1024 18.185 17.2786C18.3273 17.3685 18.6749 17.2917 19.5449 15.842C19.9574 15.1546 20.2662 14.3468 20.2662 14.3468C20.2662 14.3468 20.3342 14.2027 20.4391 14.1409C20.5465 14.0779 20.6914 14.0972 20.6914 14.0972L22.6449 14.0854C22.6449 14.0854 23.2321 14.0161 23.3268 14.2769C23.4266 14.5495 23.1075 15.187 22.3094 16.2313C21.5522 17.2221 21.1837 17.5869 21.2176 17.9095C21.2423 18.1453 21.4818 18.3585 21.9414 18.777C22.9009 19.6514 23.1581 20.1115 23.2198 20.222C23.225 20.2312 23.2287 20.2379 23.2315 20.2423C23.6617 20.9429 22.7542 20.9978 22.7542 20.9978L21.0187 21.0215C21.0187 21.0215 20.6463 21.0938 20.1557 20.7632C19.8987 20.5902 19.6475 20.3075 19.4083 20.0384C19.043 19.6272 18.7056 19.2475 18.4176 19.3372C17.9339 19.4881 17.9486 20.5106 17.9486 20.5106C17.9486 20.5106 17.9524 20.7295 17.8424 20.8455Z" fill="white"/>
</svg>
