<svg width="200" height="47" viewBox="0 0 200 47" fill="none" xmlns="http://www.w3.org/2000/svg">
<path fill-rule="evenodd" clip-rule="evenodd" d="M8.89844 38.0769V12.543H9.44505V38.0769H8.89844Z" fill="white"/>
<path fill-rule="evenodd" clip-rule="evenodd" d="M35.0456 10.224H9.51172V9.68164H35.0456V10.224Z" fill="white"/>
<path fill-rule="evenodd" clip-rule="evenodd" d="M35.0456 35.5036H9.51172V34.957H35.0456V35.5036Z" fill="white"/>
<path fill-rule="evenodd" clip-rule="evenodd" d="M34.6016 38.0769V12.543H35.1694V38.0769H34.6016Z" fill="white"/>
<path d="M1.20703 2.06836H16.5842V17.4455H1.20703V2.06836Z" fill="#0094FF"/>
<path d="M34.8338 24.4189L45.7067 35.2918L34.8338 46.1605L23.9609 35.2918L34.8338 24.4189Z" fill="#0094FF"/>
<path d="M34.8357 0L44.8823 17.3983H24.7891L34.8357 0Z" fill="#0094FF"/>
<path d="M17.7966 35.2928C17.7966 37.0528 17.2747 38.7732 16.297 40.2365C15.3192 41.6998 13.9295 42.8403 12.3035 43.5138C10.6776 44.1873 8.88844 44.3635 7.16234 44.0202C5.43623 43.6768 3.85071 42.8293 2.60626 41.5849C1.36181 40.3404 0.514326 38.7549 0.170982 37.0288C-0.172361 35.3027 0.00385546 33.5136 0.677347 31.8876C1.35084 30.2616 2.49136 28.8719 3.95468 27.8942C5.41799 26.9164 7.13839 26.3945 8.89831 26.3945C11.2583 26.3945 13.5216 27.332 15.1904 29.0008C16.8591 30.6695 17.7966 32.9329 17.7966 35.2928Z" fill="#0094FF"/>
<path d="M62.9961 10.9697H72.4241C76.9664 10.9697 80.3351 14.3341 80.3351 18.546C80.3351 22.7579 76.9452 26.118 72.4241 26.118H66.6995V34.5375H62.9961V10.9697ZM72.4241 22.7536C73.5174 22.7189 74.5544 22.2602 75.3156 21.4745C76.0767 20.6888 76.5024 19.6378 76.5024 18.5439C76.5024 17.45 76.0767 16.3989 75.3156 15.6132C74.5544 14.8276 73.5174 14.3688 72.4241 14.3341H66.6995V22.7536H72.4241Z" fill="white"/>
<path d="M83.1934 18.377H86.5578V27.8049C86.5578 30.1609 88.0747 31.6736 90.2612 31.6736C92.8035 31.6736 94.6383 29.8219 94.6383 27.1312V18.377H98.0281V34.538H94.6383V32.1778C94.0725 32.9974 93.3187 33.6697 92.4401 34.1385C91.5614 34.6073 90.5833 34.8591 89.5874 34.8727C85.884 34.8727 83.1934 32.1778 83.1934 27.8049V18.377Z" fill="white"/>
<path d="M102.08 18.377H105.47V20.7329C105.943 19.906 106.627 19.2202 107.453 18.7464C108.279 18.2726 109.217 18.0281 110.169 18.038C111.171 18.0206 112.16 18.259 113.044 18.7305C113.928 19.2021 114.677 19.8913 115.22 20.7329C115.22 20.7329 116.737 18.038 120.775 18.038C123.975 18.038 126.669 20.7329 126.669 24.9405V34.538H123.305V24.9405C123.305 22.5846 121.788 21.2372 119.915 21.2372C117.729 21.2372 116.047 22.9321 116.047 25.6143V34.538H112.678V24.9405C112.678 22.5846 111.165 21.2372 109.314 21.2372C107.123 21.2372 105.441 22.9321 105.441 25.6143V34.538H102.051L102.08 18.377Z" fill="white"/>
<path d="M130.725 18.3777H134.089V20.7337C134.727 19.8673 135.566 19.1693 136.534 18.6998C137.501 18.2302 138.569 18.0034 139.644 18.0387C143.686 18.0387 147.22 21.5769 147.22 26.4582C147.22 31.3396 143.686 34.8735 139.644 34.8735C138.569 34.9089 137.501 34.682 136.534 34.2125C135.566 33.743 134.727 33.0449 134.089 32.1786V41.6065H130.725V18.3777ZM143.86 26.4582C143.86 23.4286 141.674 21.2379 138.979 21.2379C136.284 21.2379 134.097 23.4286 134.097 26.4582C134.097 29.4879 136.28 31.6743 138.983 31.6743C141.686 31.6743 143.852 29.4879 143.852 26.4582H143.86Z" fill="white"/>
<path d="M150.995 29.6606C150.995 29.6606 152.69 31.8471 155.203 31.8471C157.054 31.8471 158.063 30.8386 158.063 29.8259C158.063 27.1352 149.478 28.4784 149.478 22.7581C149.478 20.2157 151.669 18.042 155.372 18.042C159.245 18.042 161.097 20.2327 161.097 20.2327L158.898 22.4149C157.925 21.5479 156.667 21.0683 155.364 21.0674C153.669 21.0674 152.821 21.9149 152.821 22.7623C152.821 25.453 161.406 24.1098 161.406 29.8301C161.406 32.525 159.05 34.881 155.177 34.881C153.953 34.8839 152.744 34.6134 151.638 34.0893C150.531 33.5651 149.556 32.8005 148.783 31.8513L150.995 29.6606Z" fill="white"/>
<path d="M164.5 10.9697H167.869V25.8002L174.771 18.3935H178.979L172.75 24.957L179.483 34.5545H175.61L170.559 27.296L167.869 30.1604V34.5375H164.5V10.9697Z" fill="white"/>
<path d="M183.191 11.3057C183.591 11.3057 183.982 11.4242 184.314 11.6463C184.646 11.8684 184.905 12.1841 185.058 12.5534C185.211 12.9227 185.251 13.3291 185.173 13.7212C185.095 14.1132 184.903 14.4734 184.62 14.756C184.338 15.0387 183.977 15.2312 183.585 15.3092C183.193 15.3872 182.787 15.3472 182.418 15.1942C182.048 15.0412 181.733 14.7821 181.511 14.4498C181.288 14.1174 181.17 13.7266 181.17 13.3269C181.177 12.7928 181.392 12.2826 181.769 11.9049C182.147 11.5273 182.657 11.3123 183.191 11.3057ZM181.496 18.3777H184.861V34.5387H181.496V18.3777Z" fill="white"/>
<path d="M189.08 10.9697H192.444V34.5375H189.08V10.9697Z" fill="white"/>
<path d="M196.631 10.9697H200V34.5375H196.635L196.631 10.9697Z" fill="white"/>
</svg>
