<svg width="34" height="35" viewBox="0 0 34 35" fill="none" xmlns="http://www.w3.org/2000/svg">
<path d="M33.9987 16.5164C33.9987 25.6382 26.604 33.0329 17.4822 33.0329C8.36048 33.0329 0.96582 25.6382 0.96582 16.5164C0.96582 7.39466 8.36048 0 17.4822 0C26.604 0 33.9987 7.39466 33.9987 16.5164Z" fill="white"/>
<path d="M23.9996 19.47V21.1259C24.0003 21.2797 23.9659 21.4318 23.8986 21.5727C23.8313 21.7135 23.7325 21.84 23.6087 21.9439C23.4849 22.0478 23.3387 22.1269 23.1795 22.1762C23.0203 22.2254 22.8517 22.2437 22.6843 22.2299C20.8277 22.0453 19.0443 21.4649 17.4773 20.5353C16.0195 19.6878 14.7836 18.5571 13.8572 17.2234C12.8375 15.7834 12.2029 14.1439 12.0049 12.4377C11.9898 12.2851 12.0096 12.1313 12.0631 11.986C12.1166 11.8408 12.2025 11.7073 12.3155 11.5941C12.4284 11.4809 12.5659 11.3905 12.7191 11.3286C12.8724 11.2666 13.038 11.2346 13.2056 11.2344H15.0156C15.3085 11.2318 15.5923 11.3267 15.8143 11.5013C16.0364 11.676 16.1814 11.9186 16.2224 12.1838C16.2988 12.7138 16.4404 13.2341 16.6447 13.7349C16.7259 13.9325 16.7435 14.1472 16.6953 14.3536C16.6472 14.56 16.5354 14.7495 16.3732 14.8996L15.6069 15.6006C16.4658 16.9825 17.7165 18.1267 19.2271 18.9125L19.9933 18.2115C20.1574 18.0631 20.3645 17.9608 20.5901 17.9168C20.8158 17.8727 21.0505 17.8888 21.2664 17.9631C21.8138 18.15 22.3826 18.2796 22.9619 18.3495C23.2549 18.3873 23.5226 18.5223 23.714 18.729C23.9053 18.9356 24.007 19.1993 23.9996 19.47Z" fill="#39353E"/>
<path d="M4.51394 23.9076L10.2372 29.631L2.41887 31.7261L4.51394 23.9076Z" fill="white"/>
</svg>
