<svg width="33" height="33" viewBox="0 0 33 33" fill="none" xmlns="http://www.w3.org/2000/svg">
<path fill-rule="evenodd" clip-rule="evenodd" d="M16.4611 32.9222C25.5523 32.9222 32.9222 25.5523 32.9222 16.4611C32.9222 7.36988 25.5523 0 16.4611 0C7.36988 0 0 7.36988 0 16.4611C0 25.5523 7.36988 32.9222 16.4611 32.9222ZM14.7671 20.7306L14.9355 18.2077L14.9354 18.2076L19.525 14.0658C19.7264 13.887 19.481 13.7998 19.2136 13.962L13.5494 17.5355L11.1028 16.7718C10.5744 16.6101 10.5706 16.247 11.2214 15.986L20.7553 12.3097C21.1908 12.112 21.6111 12.4143 21.4448 13.0808L19.8212 20.7319C19.7078 21.2756 19.3793 21.4056 18.9241 21.1545L16.4508 19.3272L15.262 20.4832C15.2583 20.4868 15.2545 20.4905 15.2508 20.4941C15.1179 20.6235 15.0078 20.7306 14.7671 20.7306Z" fill="white"/>
</svg>
