<svg width="34" height="34" viewBox="0 0 34 34" fill="none" xmlns="http://www.w3.org/2000/svg">
<path fill-rule="evenodd" clip-rule="evenodd" d="M16.5034 33.0068C25.6179 33.0068 33.0068 25.6179 33.0068 16.5034C33.0068 7.38881 25.6179 0 16.5034 0C7.38881 0 0 7.38881 0 16.5034C0 25.6179 7.38881 33.0068 16.5034 33.0068ZM16.3628 14.6979L16.338 14.2885C16.2635 13.2274 16.9173 12.2581 17.9519 11.8822C18.3326 11.7485 18.9781 11.7318 19.4002 11.8487C19.5657 11.8989 19.8802 12.066 20.1037 12.2164L20.5092 12.4921L20.9562 12.3501C21.2044 12.2749 21.5355 12.1495 21.6845 12.066C21.8252 11.9908 21.9493 11.949 21.9493 11.9741C21.9493 12.1161 21.6431 12.6007 21.3865 12.8681C21.0389 13.2441 21.1382 13.2775 21.8417 13.0268C22.2638 12.8848 22.2721 12.8848 22.1893 13.0436C22.1397 13.1271 21.8831 13.4195 21.61 13.6869C21.1465 14.1465 21.1217 14.1966 21.1217 14.5809C21.1217 15.1742 20.8403 16.4108 20.5589 17.0876C20.0375 18.3576 18.9202 19.6694 17.8029 20.3295C16.2304 21.2569 14.1365 21.4909 12.3737 20.9478C11.7861 20.7639 10.7764 20.296 10.7764 20.2125C10.7764 20.1874 11.0826 20.154 11.455 20.1456C12.233 20.1289 13.011 19.9117 13.6731 19.5273L14.12 19.26L13.6068 19.0845C12.8785 18.8338 12.2247 18.2573 12.0592 17.7142C12.0095 17.5388 12.0261 17.5304 12.4896 17.5304L12.9696 17.522L12.564 17.3299C12.084 17.0876 11.6454 16.6782 11.4302 16.2604C11.2729 15.9596 11.0743 15.1992 11.1322 15.1408C11.1488 15.1157 11.3226 15.1658 11.5212 15.2327C12.0923 15.4416 12.1668 15.3914 11.8357 15.0405C11.215 14.4055 11.0247 13.4613 11.3226 12.5673L11.4633 12.1662L12.0095 12.7093C13.1268 13.8039 14.4427 14.4556 15.949 14.6478L16.3628 14.6979Z" fill="white"/>
</svg>
