<svg width="160" height="38" viewBox="0 0 160 38" fill="none" xmlns="http://www.w3.org/2000/svg">
<path fill-rule="evenodd" clip-rule="evenodd" d="M7.11719 30.6937V10.2666H7.55448V30.6937H7.11719Z" fill="#39353E"/>
<path fill-rule="evenodd" clip-rule="evenodd" d="M28.0365 8.41241H7.60938V7.97852H28.0365V8.41241Z" fill="#39353E"/>
<path fill-rule="evenodd" clip-rule="evenodd" d="M28.0365 28.6355H7.60938V28.1982H28.0365V28.6355Z" fill="#39353E"/>
<path fill-rule="evenodd" clip-rule="evenodd" d="M27.6797 30.6937V10.2666H28.1339V30.6937H27.6797Z" fill="#39353E"/>
<path d="M0.964844 1.88672H13.2665V14.1884H0.964844V1.88672Z" fill="#0094FF"/>
<path d="M27.8663 19.7676L36.5646 28.4659L27.8663 37.1608L19.168 28.4659L27.8663 19.7676Z" fill="#0094FF"/>
<path d="M27.8693 0.232422L35.9066 14.1511H19.832L27.8693 0.232422Z" fill="#0094FF"/>
<path d="M14.2373 28.4663C14.2373 29.8742 13.8198 31.2505 13.0376 32.4212C12.2554 33.5919 11.1436 34.5043 9.84283 35.0431C8.54206 35.5819 7.11074 35.7228 5.72986 35.4481C4.34898 35.1735 3.08056 34.4955 2.085 33.4999C1.08944 32.5044 0.41146 31.236 0.136786 29.8551C-0.137888 28.4742 0.00308437 27.0429 0.541877 25.7421C1.08067 24.4413 1.99308 23.3296 3.16374 22.5474C4.33439 21.7652 5.71071 21.3477 7.11864 21.3477C9.00662 21.3477 10.8173 22.0977 12.1523 23.4327C13.4873 24.7677 14.2373 26.5783 14.2373 28.4663Z" fill="#0094FF"/>
<path d="M50.3965 9.00781H57.9389C61.5727 9.00781 64.2677 11.6993 64.2677 15.0688C64.2677 18.4383 61.5558 21.1264 57.9389 21.1264H53.3592V27.862H50.3965V9.00781ZM57.9389 18.4349C58.8136 18.4072 59.6431 18.0402 60.2521 17.4116C60.861 16.7831 61.2015 15.9423 61.2015 15.0671C61.2015 14.192 60.861 13.3512 60.2521 12.7226C59.6431 12.0941 58.8136 11.7271 57.9389 11.6993H53.3592V18.4349H57.9389Z" fill="#39353E"/>
<path d="M66.5547 14.9336H69.2462V22.476C69.2462 24.3607 70.4598 25.5709 72.2089 25.5709C74.2428 25.5709 75.7106 24.0895 75.7106 21.937V14.9336H78.4225V27.8624H75.7106V25.9743C75.258 26.6299 74.655 27.1678 73.952 27.5428C73.2491 27.9179 72.4666 28.1193 71.6699 28.1302C68.7072 28.1302 66.5547 25.9743 66.5547 22.476V14.9336Z" fill="#39353E"/>
<path d="M81.6644 14.934H84.3762V16.8188C84.7541 16.1572 85.3018 15.6086 85.9627 15.2295C86.6236 14.8505 87.3737 14.6549 88.1355 14.6628C88.9368 14.6489 89.7284 14.8396 90.4354 15.2168C91.1425 15.5941 91.7416 16.1454 92.1762 16.8188C92.1762 16.8188 93.3898 14.6628 96.6203 14.6628C99.1796 14.6628 101.336 16.8188 101.336 20.1849V27.8628H98.644V20.1849C98.644 18.3001 97.4304 17.2221 95.9321 17.2221C94.183 17.2221 92.8372 18.5781 92.8372 20.7238V27.8628H90.1423V20.1849C90.1423 18.3001 88.9322 17.2221 87.4508 17.2221C85.6983 17.2221 84.3525 18.5781 84.3525 20.7238V27.8628H81.6406L81.6644 14.934Z" fill="#39353E"/>
<path d="M104.58 14.9342H107.272V16.819C107.782 16.1259 108.453 15.5674 109.227 15.1918C110.001 14.8162 110.856 14.6347 111.716 14.663C114.95 14.663 117.777 17.4935 117.777 21.3986C117.777 25.3037 114.95 28.1308 111.716 28.1308C110.856 28.1591 110.001 27.9776 109.227 27.602C108.453 27.2264 107.782 26.6679 107.272 25.9749V33.5172H104.58V14.9342ZM115.089 21.3986C115.089 18.9749 113.339 17.2223 111.183 17.2223C109.028 17.2223 107.278 18.9749 107.278 21.3986C107.278 23.8223 109.024 25.5715 111.187 25.5715C113.35 25.5715 115.082 23.8223 115.082 21.3986H115.089Z" fill="#39353E"/>
<path d="M120.795 23.9609C120.795 23.9609 122.151 25.7101 124.161 25.7101C125.642 25.7101 126.449 24.9033 126.449 24.0931C126.449 21.9406 119.581 23.0152 119.581 18.4389C119.581 16.405 121.334 14.666 124.297 14.666C127.395 14.666 128.876 16.4186 128.876 16.4186L127.117 18.1643C126.338 17.4707 125.332 17.0871 124.29 17.0864C122.934 17.0864 122.256 17.7643 122.256 18.4423C122.256 20.5948 129.124 19.5202 129.124 24.0965C129.124 26.2524 127.239 28.1372 124.141 28.1372C123.161 28.1396 122.194 27.9232 121.309 27.5038C120.424 27.0845 119.644 26.4728 119.025 25.7135L120.795 23.9609Z" fill="#39353E"/>
<path d="M131.6 9.00781H134.295V20.8722L139.817 14.9468H143.183L138.2 20.1976L143.586 27.8756H140.488L136.447 22.0688L134.295 24.3603V27.862H131.6V9.00781Z" fill="#39353E"/>
<path d="M146.552 9.27637C146.872 9.27637 147.185 9.3712 147.451 9.54887C147.717 9.72654 147.924 9.97908 148.046 10.2745C148.169 10.57 148.201 10.8951 148.138 11.2088C148.076 11.5224 147.922 11.8105 147.696 12.0367C147.47 12.2628 147.182 12.4168 146.868 12.4792C146.554 12.5416 146.229 12.5096 145.934 12.3872C145.638 12.2648 145.386 12.0575 145.208 11.7916C145.03 11.5257 144.936 11.2131 144.936 10.8933C144.941 10.4661 145.113 10.0579 145.415 9.75579C145.717 9.45369 146.125 9.28164 146.552 9.27637ZM145.197 14.934H147.888V27.8628H145.197V14.934Z" fill="#39353E"/>
<path d="M151.264 9.00781H153.955V27.862H151.264V9.00781Z" fill="#39353E"/>
<path d="M157.305 9.00781H160V27.862H157.308L157.305 9.00781Z" fill="#39353E"/>
</svg>
