<svg width="1200" height="66" viewBox="0 0 1200 66" fill="none" xmlns="http://www.w3.org/2000/svg">
<line x1="670" y1="33.0605" x2="560" y2="33.0605" stroke="#39353E"/>
<path d="M541.5 0.560547L579 65.5605H504L541.5 0.560547Z" fill="#0094FF"/>
<path d="M627.866 65.0605L664.5 1.5611L701.134 65.0605H627.866Z" stroke="#39353E"/>
<line x1="542" y1="33.0605" x2="396" y2="33.0605" stroke="#39353E"/>
<line x1="422.5" y1="0.560547" x2="422.5" y2="64.5605" stroke="#39353E"/>
<line x1="646.436" y1="33.3154" x2="664.436" y2="65.3154" stroke="#39353E"/>
<line y1="-0.5" x2="36.7151" y2="-0.5" transform="matrix(-0.490261 0.871576 0.871576 0.490261 683 33.5605)" stroke="#39353E"/>
<line x1="792" y1="33.0605" x2="661" y2="33.0605" stroke="#39353E"/>
<path d="M275 0.560547H340V65.5605H275V0.560547Z" fill="#0094FF"/>
<path d="M390.5 1.06055H454.5V65.0605H390.5V1.06055Z" stroke="#39353E"/>
<line x1="397" y1="33.0605" x2="225" y2="33.0605" stroke="#39353E"/>
<circle r="32" transform="matrix(-1 0 0 1 77.5 33.0605)" stroke="#39353E"/>
<circle r="32" transform="matrix(-1 0 0 1 1003.5 33.0605)" stroke="#39353E"/>
<circle r="32.5" transform="matrix(-1 0 0 1 192.5 33.0605)" fill="#0094FF"/>
<line x1="192" y1="33.0605" x2="77" y2="33.0605" stroke="#39353E"/>
<line x1="921" y1="33.0605" x2="971" y2="33.0606" stroke="#39353E"/>
<line x1="214.361" y1="8.9065" x2="191.361" y2="32.9065" stroke="#39353E"/>
<line y1="-0.5" x2="33.2415" y2="-0.5" transform="matrix(-0.691905 -0.721988 -0.721988 0.691905 214 57.5605)" stroke="#39353E"/>
<path d="M774.5 0.560547L807 33.0669L774.5 65.5605L742 33.0669L774.5 0.560547Z" fill="#0094FF"/>
<path d="M857.707 33.0668L889.5 1.26772L921.293 33.0668L889.5 64.8535L857.707 33.0668Z" stroke="#39353E"/>
<line x1="889" y1="33.0605" x2="775" y2="33.0605" stroke="#39353E"/>
<circle r="32" transform="matrix(-1 0 0 1 77.5 33.0605)" stroke="#39353E"/>
<line x1="-5" y1="33.0605" x2="45" y2="33.0606" stroke="#39353E"/>
<line x1="1323" y1="33.0605" x2="1151" y2="33.0605" stroke="#39353E"/>
<circle r="32" transform="matrix(-1 0 0 1 1003.5 33.0605)" stroke="#39353E"/>
<circle r="32.5" transform="matrix(-1 0 0 1 1118.5 33.0605)" fill="#0094FF"/>
<line x1="1118" y1="33.0605" x2="1003" y2="33.0605" stroke="#39353E"/>
<line x1="1140.36" y1="8.9065" x2="1117.36" y2="32.9065" stroke="#39353E"/>
<line y1="-0.5" x2="33.2415" y2="-0.5" transform="matrix(-0.691905 -0.721988 -0.721988 0.691905 1140 57.5605)" stroke="#39353E"/>
</svg>
