<svg width="20" height="20" viewBox="0 0 20 20" fill="none" xmlns="http://www.w3.org/2000/svg">
<path fill-rule="evenodd" clip-rule="evenodd" d="M17.2517 0.677715C16.5163 1.01202 8.2256 4.88992 1.4727 8.03235C0.937817 8.2998 0.603516 8.83468 0.603516 9.36956C0.603516 9.90444 1.00468 10.3056 1.4727 10.3725C1.87386 10.4393 5.88548 11.0411 5.88548 11.0411L7.02211 17.7271L7.62385 14.7853L6.75467 10.3725L14.9116 4.35503L8.2256 11.7097L10.5657 14.3841C10.6994 14.5178 13.5744 17.8608 13.775 18.0614C14.1093 18.3957 14.6442 19.0643 14.9116 19.0643C15.3797 19.0643 15.8477 18.3957 16.0483 17.3928C16.2488 16.4568 17.586 9.9713 19.2576 1.34632C19.4581 0.410273 18.589 0.00911102 17.2517 0.677715Z" fill="white"/>
</svg>
