<svg width="24" height="24" viewBox="0 0 24 24" fill="none" xmlns="http://www.w3.org/2000/svg">
<path fill-rule="evenodd" clip-rule="evenodd" d="M11.9989 0.489258C5.68198 0.489258 0.570312 5.59808 0.570312 11.9178C0.570312 14.3012 1.29713 16.5057 2.58817 18.4C2.63622 18.4712 2.6676 18.5523 2.67997 18.6373C2.69234 18.7224 2.68537 18.8091 2.6596 18.891L1.49888 22.775L5.30246 21.4625C5.38376 21.4354 5.47011 21.427 5.55511 21.4378C5.64012 21.4486 5.7216 21.4784 5.79353 21.525C7.57511 22.681 9.7079 23.3464 11.9989 23.3464C18.3188 23.3464 23.4275 18.2377 23.4275 11.9178C23.4275 5.59791 18.3188 0.489258 11.9989 0.489258ZM7.32031 5.4714L9.40067 8.90892L8.5346 9.76606C8.44642 9.85503 8.38992 9.97049 8.37379 10.0947C8.35766 10.2189 8.38279 10.345 8.44531 10.4535C9.76698 12.7423 11.3329 14.5229 13.5257 15.4893C13.6307 15.5359 13.7475 15.5498 13.8606 15.5291C13.9737 15.5084 14.0779 15.4541 14.1596 15.3732L15.0792 14.4535L18.4364 16.5518C18.0646 17.3884 17.58 17.8865 17.0257 18.1768C16.3835 18.513 15.5993 18.5766 14.7042 18.391C12.9142 18.0199 10.752 16.613 8.98996 14.8107C7.22792 13.0084 5.86436 10.8168 5.51674 9.03388C5.34294 8.14246 5.41972 7.37475 5.74888 6.76606C6.03231 6.24198 6.51374 5.79329 7.32031 5.4714Z" fill="white"/>
</svg>
