<svg width="34" height="35" viewBox="0 0 34 35" fill="none" xmlns="http://www.w3.org/2000/svg">
<path fill-rule="evenodd" clip-rule="evenodd" d="M17.1143 0.414062C7.80796 0.414062 0.263672 7.95836 0.263672 17.2647C0.263672 26.5711 7.80796 34.1154 17.1143 34.1154C26.4207 34.1154 33.965 26.5711 33.965 17.2647C33.965 7.95836 26.4207 0.414062 17.1143 0.414062ZM18.1061 21.2586C17.986 21.3853 17.7515 21.4108 17.7515 21.4108H16.9749C16.9749 21.4108 15.2616 21.5119 13.7523 19.9698C12.1064 18.2874 10.653 14.9495 10.653 14.9495C10.653 14.9495 10.5691 14.7305 10.66 14.6251C10.7623 14.5059 11.0413 14.4985 11.0413 14.4985L12.8976 14.4866C12.8976 14.4866 13.0723 14.5147 13.1975 14.6051C13.3011 14.68 13.3589 14.8191 13.3589 14.8191C13.3589 14.8191 13.6589 15.5639 14.0561 16.2376C14.832 17.5532 15.193 17.8408 15.4561 17.6998C15.8399 17.4946 15.7249 15.8403 15.7249 15.8403C15.7249 15.8403 15.7319 15.2402 15.5317 14.9726C15.3766 14.7655 15.0843 14.7049 14.9553 14.6881C14.8504 14.6744 15.022 14.4361 15.2445 14.3294C15.5787 14.1691 16.1685 14.1597 16.8656 14.1666C17.409 14.1722 17.5653 14.2053 17.7776 14.2558C18.2702 14.3725 18.2548 14.7465 18.2216 15.5535C18.2117 15.7949 18.2002 16.075 18.2002 16.3986C18.2002 16.4713 18.198 16.5488 18.1958 16.6285C18.1843 17.042 18.1711 17.5155 18.4486 17.6917C18.591 17.7815 18.9386 17.7048 19.8086 16.2551C20.2211 15.5677 20.5299 14.7598 20.5299 14.7598C20.5299 14.7598 20.5979 14.6157 20.7028 14.554C20.8102 14.491 20.9551 14.5103 20.9551 14.5103L22.9086 14.4985C22.9086 14.4985 23.4958 14.4292 23.5905 14.69C23.6902 14.9626 23.3712 15.6001 22.573 16.6444C21.8159 17.6352 21.4474 18 21.4812 18.3226C21.506 18.5584 21.7455 18.7716 22.2051 19.1901C23.1645 20.0645 23.4217 20.5246 23.4835 20.6351C23.4886 20.6443 23.4924 20.651 23.4951 20.6554C23.9254 21.3559 23.0179 21.4108 23.0179 21.4108L21.2823 21.4345C21.2823 21.4345 20.9099 21.5069 20.4193 21.1763C20.1623 21.0033 19.9112 20.7206 19.672 20.4514C19.3067 20.0403 18.9693 19.6606 18.6812 19.7503C18.1976 19.9012 18.2122 20.9236 18.2122 20.9236C18.2122 20.9236 18.216 21.1426 18.1061 21.2586Z" fill="#0094FF"/>
</svg>
