<svg width="34" height="34" viewBox="0 0 34 34" fill="none" xmlns="http://www.w3.org/2000/svg">
<path fill-rule="evenodd" clip-rule="evenodd" d="M16.767 33.4208C25.8816 33.4208 33.2704 26.032 33.2704 16.9174C33.2704 7.80288 25.8816 0.414062 16.767 0.414062C7.65248 0.414062 0.263672 7.80288 0.263672 16.9174C0.263672 26.032 7.65248 33.4208 16.767 33.4208ZM16.6265 15.112L16.6017 14.7026C16.5272 13.6414 17.181 12.6722 18.2155 12.2962C18.5963 12.1625 19.2418 12.1458 19.6639 12.2628C19.8294 12.3129 20.1439 12.48 20.3674 12.6304L20.7729 12.9062L21.2198 12.7641C21.4681 12.6889 21.7992 12.5636 21.9481 12.48C22.0888 12.4048 22.213 12.3631 22.213 12.3881C22.213 12.5302 21.9068 13.0148 21.6502 13.2822C21.3026 13.6581 21.4019 13.6916 22.1054 13.4409C22.5275 13.2989 22.5358 13.2989 22.453 13.4576C22.4033 13.5412 22.1468 13.8336 21.8737 14.101C21.4102 14.5605 21.3854 14.6107 21.3854 14.995C21.3854 15.5882 21.104 16.8248 20.8226 17.5016C20.3012 18.7717 19.1839 20.0834 18.0666 20.7435C16.4941 21.671 14.4002 21.9049 12.6374 21.3618C12.0497 21.178 11.04 20.7101 11.04 20.6265C11.04 20.6015 11.3463 20.5681 11.7187 20.5597C12.4967 20.543 13.2746 20.3258 13.9367 19.9414L14.3836 19.674L13.8705 19.4986C13.1422 19.2479 12.4884 18.6714 12.3229 18.1283C12.2732 17.9528 12.2898 17.9445 12.7532 17.9445L13.2332 17.9361L12.8277 17.7439C12.3477 17.5016 11.909 17.0922 11.6939 16.6744C11.5366 16.3737 11.338 15.6133 11.3959 15.5548C11.4125 15.5298 11.5863 15.5799 11.7849 15.6467C12.356 15.8556 12.4304 15.8055 12.0994 15.4546C11.4787 14.8195 11.2883 13.8754 11.5863 12.9814L11.727 12.5803L12.2732 13.1234C13.3905 14.218 14.7064 14.8697 16.2127 15.0619L16.6265 15.112Z" fill="#0094FF"/>
</svg>
