<svg width="14" height="14" viewBox="0 0 14 14" fill="none" xmlns="http://www.w3.org/2000/svg">
<path fill-rule="evenodd" clip-rule="evenodd" d="M12.5561 0.232408C12.0413 0.466419 6.2378 3.18095 1.51077 5.38066C1.13635 5.56787 0.902344 5.94228 0.902344 6.3167C0.902344 6.69112 1.18316 6.97193 1.51077 7.01874C1.79159 7.06554 4.59972 7.48676 4.59972 7.48676L5.39536 12.167L5.81658 10.1077L5.20815 7.01874L10.918 2.80653L6.2378 7.95478L7.87588 9.82687C7.96948 9.92048 9.98198 12.2606 10.1224 12.401C10.3564 12.635 10.7308 13.103 10.918 13.103C11.2456 13.103 11.5733 12.635 11.7137 11.933C11.8541 11.2777 12.7901 6.73792 13.9602 0.700431C14.1006 0.0451991 13.4922 -0.235614 12.5561 0.232408Z" fill="white"/>
</svg>
