<svg width="17" height="16" viewBox="0 0 17 16" fill="none" xmlns="http://www.w3.org/2000/svg">
<path fill-rule="evenodd" clip-rule="evenodd" d="M8.98047 0C4.55863 0 0.980469 3.57617 0.980469 8C0.980469 9.66834 1.48924 11.2115 2.39297 12.5375C2.42661 12.5874 2.44857 12.6441 2.45723 12.7037C2.46588 12.7632 2.46101 12.8239 2.44297 12.8813L1.63047 15.6L4.29297 14.6813C4.34988 14.6623 4.41033 14.6564 4.46983 14.664C4.52933 14.6715 4.58637 14.6924 4.63672 14.725C5.88383 15.5342 7.37678 16 8.98047 16C13.4044 16 16.9805 12.4239 16.9805 8C16.9805 3.57605 13.4044 0 8.98047 0ZM5.70547 3.4875L7.16172 5.89376L6.55547 6.49376C6.49375 6.55604 6.4542 6.63687 6.4429 6.72382C6.43161 6.81077 6.4492 6.89902 6.49297 6.975C7.41813 8.57713 8.51431 9.82354 10.0492 10.5C10.1228 10.5327 10.2045 10.5424 10.2836 10.5279C10.3628 10.5134 10.4358 10.4754 10.493 10.4188L11.1367 9.775L13.4867 11.2438C13.2265 11.8294 12.8873 12.1781 12.4992 12.3813C12.0497 12.6166 11.5007 12.6612 10.8742 12.5312C9.6212 12.2714 8.10764 11.2866 6.87422 10.025C5.6408 8.76338 4.6863 7.22926 4.44297 5.98124C4.3213 5.35724 4.37505 4.81984 4.60547 4.39376C4.80386 4.0269 5.14086 3.71282 5.70547 3.4875Z" fill="white"/>
</svg>
