<svg width="200" height="176" viewBox="0 0 200 176" fill="none" xmlns="http://www.w3.org/2000/svg">
<ellipse rx="87.3293" ry="20.5675" transform="matrix(1.19362e-08 -1 -1 -1.19136e-08 178.567 87.3289)" fill="#0094FF"/>
<path d="M176.999 88.1997L149.036 104.562L149.036 71.8369L176.999 88.1997Z" fill="#39353E"/>
<path d="M96.007 107.038L111.307 116.136L96.007 125.235L96.007 107.038Z" stroke="#39353E"/>
<path d="M80.0284 51.1652L95.3279 60.2634L80.0284 69.3617L80.0284 51.1652Z" stroke="#39353E"/>
<line x1="156.227" y1="88.3008" x2="40.3802" y2="88.3008" stroke="#39353E"/>
<line x1="84.92" y1="60.3643" x2="39.3804" y2="60.3643" stroke="#39353E"/>
<line x1="102" y1="116.421" x2="39.9996" y2="116.421" stroke="#39353E"/>
<path d="M46.567 0.842376C44.0279 0.842376 41.45 3.04478 38.998 7.44839C36.5697 11.8095 34.3666 18.1532 32.5102 26.0352C28.7994 41.7912 26.4994 63.5832 26.4994 87.6717C26.4994 111.76 28.7994 133.552 32.5102 149.308C34.3666 157.19 36.5696 163.534 38.998 167.895C41.45 172.299 44.0279 174.501 46.567 174.501C49.1061 174.501 51.6839 172.299 54.136 167.895C56.5643 163.534 58.7674 157.19 60.6237 149.308C64.3345 133.552 66.6345 111.76 66.6345 87.6717C66.6345 63.5832 64.3346 41.7912 60.6237 26.0352C58.7674 18.1532 56.5643 11.8095 54.136 7.44839C51.6839 3.04478 49.1061 0.842376 46.567 0.842376Z" stroke="#39353E"/>
<path d="M20.5676 0.842376C18.0285 0.842376 15.4507 3.04478 12.9986 7.44839C10.5703 11.8095 8.36716 18.1532 6.51082 26.0352C2.80002 41.7912 0.500047 63.5832 0.500047 87.6717C0.500047 111.76 2.80002 133.552 6.51082 149.308C8.36716 157.19 10.5703 163.534 12.9986 167.895C15.4507 172.299 18.0285 174.501 20.5676 174.501C23.1067 174.501 25.6845 172.299 28.1366 167.895C30.5649 163.534 32.768 157.19 34.6244 149.308C38.3352 133.552 40.6351 111.76 40.6351 87.6717C40.6351 63.5832 38.3352 41.7912 34.6244 26.0352C32.768 18.1532 30.5649 11.8095 28.1366 7.44839C25.6845 3.04478 23.1067 0.842376 20.5676 0.842376Z" stroke="#39353E"/>
</svg>
